<svg xmlns="http://www.w3.org/2000/svg" shape-rendering="geometricPrecision" text-rendering="geometricPrecision" image-rendering="optimizeQuality" fill-rule="evenodd" clip-rule="evenodd" viewBox="0 0 380 511.43"><path d="M26.51 0H247.2c3.21 0 6.06 1.55 7.83 3.95l122.65 144.81a9.729 9.729 0 0 1 2.3 6.28l.02 329.88c0 7.23-3.01 13.86-7.81 18.66l-.04.04c-4.8 4.8-11.43 7.81-18.66 7.81H26.51c-7.22 0-13.87-2.99-18.68-7.8l-.04-.04C3 498.79 0 492.18 0 484.92V26.51c0-7.27 2.98-13.89 7.78-18.69l.04-.04C12.62 2.98 19.24 0 26.51 0zm208.7 16.28h9.97l118.84 141.08v4.67c-148.59 4.9-138.81-6.1-128.81-145.75z"/></svg>